<svg xmlns="http://www.w3.org/2000/svg" version="1.1" xmlns:xlink="http://www.w3.org/1999/xlink" xmlns:svgjs="http://svgjs.dev/svgjs" width="100%" height="100%" viewBox="0 0 1000 600"><rect width="1000" height="600" x="0" y="0" fill="#2b3252"/><g><circle r="166.66666666666666" cx="339.8578440348307" cy="362.08007663577916" fill="#fad744" transform="matrix(0.7217457507277663,0,0,0.721745750727766,0,38.67023678521629)"/><path d="M293.27134168348505 437.08009549900754L293.27134168348505 437.08009549900754Q277.658428931127 437.08009549900754 269.03223157845093 430.54739048630853Q260.406034225775 423.98946267433263 257.05140192195654 412.916653791804Q253.69676961813806 401.84384490927545 253.69676961813806 388.223533299787L253.69676961813806 388.223533299787L253.69676961813806 336.2897895887931Q253.69676961813806 321.38311521618635 257.05140192195654 310.31030633365776Q260.406034225775 299.23749745112923 269.03223157845093 293.1588028254131Q277.658428931127 287.08010819969695 293.27134168348505 287.08010819969695L293.27134168348505 287.08010819969695Q307.0682128879113 287.08010819969695 315.1647314557739 292.1498908543398Q323.23602722435965 297.2448963082596 326.79244192239275 306.6782232377942Q330.323633821149 316.13677296660563 330.323633821149 329.37874258694154L330.323633821149 329.37874258694154L330.323633821149 341.0064530535604L310.9020783779895 341.0064530535604L310.9020783779895 330.66510535005995Q310.9020783779895 322.4929183843669 310.0697260018542 316.2124413644361Q309.26259642499554 309.9571871437821 305.630513329132 306.50166364285633Q301.99843023326844 303.04614014193055 293.4479012784228 303.04614014193055L293.4479012784228 303.04614014193055Q284.7460355279163 303.04614014193055 280.73561044290034 306.7791144349015Q276.75040815716113 310.48686592859553 275.56493659115006 317.2970217333398Q274.3794650251391 324.10717753808404 274.3794650251391 333.187385277743L274.3794650251391 333.187385277743L274.3794650251391 391.502497205775Q274.3794650251391 402.57530608830353 276.1955065730708 409.00711990389533Q278.01154812100265 415.4641565187639 282.1985328009565 418.1882188406616Q286.3855174809104 420.9122811625593 293.4479012784228 420.9122811625593L293.4479012784228 420.9122811625593Q301.82187063833055 420.9122811625593 305.4539537341941 417.1793068695884Q309.08603683005776 413.4715553758943 309.9940576040236 406.9388503631952Q310.9020783779895 400.38092255121927 310.9020783779895 391.6790568007128L310.9020783779895 391.6790568007128L310.9020783779895 380.782807513122L330.323633821149 380.782807513122L330.323633821149 391.6790568007128Q330.323633821149 405.12280881526345 327.04466991516097 415.36326532165657Q323.79092880844985 425.6289446273266 315.79530143769466 431.35452006316706Q307.79967406693936 437.08009549900754 293.27134168348505 437.08009549900754ZM393.53196880888606 435.4406135460136L375.548112924506 435.4406135460136L342.6828054667959 288.34124816353847L361.9278013150175 288.34124816353847L385.15799944897833 396.7488394553557L407.3288400133124 288.34124816353847L426.0189342774437 288.34124816353847L393.53196880888606 435.4406135460136Z " fill="#2b3252" transform="matrix(0.7217457507277663,0,0,0.721745750727766,0,38.67023678521629)"/><path d="M623.8384968605635 415.8773757386794L623.8384968605635 415.8773757386794Q610.4324923979301 415.8773757386794 603.0256207885269 410.2680782333127Q595.6187491791236 404.63712320862015 592.7382991088001 395.1294722246201Q589.8578490384766 385.6218212406199 589.8578490384766 373.9267608047201L589.8578490384766 373.9267608047201L589.8578490384766 329.33392851302034Q589.8578490384766 316.53433459150773 592.7382991088001 307.0266836075076Q595.6187491791236 297.51903262350754 603.0256207885269 292.29957046600407Q610.4324923979301 287.0801083085006 623.8384968605635 287.0801083085006L623.8384968605635 287.0801083085006Q635.6851599317436 287.0801083085006 642.6372236353062 291.4332696929745Q649.5676298195432 295.80808859677404 652.6213400444726 303.908000824601Q655.6533927500763 312.0295705717537 655.6533927500763 323.3997682177674L655.6533927500763 323.3997682177674L655.6533927500763 333.3838846269338L638.9771028692561 333.3838846269338L638.9771028692561 324.50430170338024Q638.9771028692561 317.4872654418403 638.2624047315068 312.0945431297309Q637.569364113083 306.72347833694727 634.4506813301763 303.75639818932086Q631.3319985472698 300.7893180416944 623.9900994958438 300.7893180416944L623.9900994958438 300.7893180416944Q616.5182553284632 300.7893180416944 613.0747097556705 303.994630901904Q609.6528217022035 307.17828624278786 608.6349182938937 313.02581646073776Q607.6170148855839 318.8733466786877 607.6170148855839 326.6700536359543L607.6170148855839 326.6700536359543L607.6170148855839 376.7422383170663Q607.6170148855839 386.2498893010664 609.1763562770371 391.77255672913026Q610.7356976684905 397.3168816765198 614.3308458765634 399.6558937636998Q617.9259940846363 401.9949058508798 623.9900994958438 401.9949058508798L623.9900994958438 401.9949058508798Q631.1803959119895 401.9949058508798 634.2990786948961 398.7895929906702Q637.4177614778029 395.6059376497863 638.1974321735295 389.9966401444196Q638.9771028692561 384.36568511972695 638.9771028692561 376.8938409523466L638.9771028692561 376.8938409523466L638.9771028692561 367.53779260362666L655.6533927500763 367.53779260362666L655.6533927500763 376.8938409523466Q655.6533927500763 388.4372987529662 652.83791523773 397.23025159921684Q650.0440952447095 406.04486196479326 643.1786616184498 410.96111885173633Q636.31322799219 415.8773757386794 623.8384968605635 415.8773757386794ZM709.927136180382 414.4696369825063L694.485324901129 414.4696369825063L666.2655772196891 288.1629842747876L682.7902644652291 288.1629842747876L702.7368397642362 381.24700233682034L721.7737992515621 288.1629842747876L737.8220210719359 288.1629842747876L709.927136180382 414.4696369825063ZM754.8231737426421 414.4696369825063L738.2984864971021 414.4696369825063L765.1104954223689 288.1629842747876L782.1116480930751 288.1629842747876L809.0969171729479 414.4696369825063L792.3989697728019 414.4696369825063L786.638069632155 382.65474109299345L760.9089366731752 382.65474109299345L754.8231737426421 414.4696369825063ZM773.6868730753621 313.11244653804073L763.2479487603551 370.0284073260868L784.299057544975 370.0284073260868L773.6868730753621 313.11244653804073ZM838.7244036105609 414.4696369825063L822.026456210415 414.4696369825063L822.026456210415 288.1629842747876L838.7244036105609 288.1629842747876L838.7244036105609 414.4696369825063ZM880.8266211798004 415.72577310339926L880.8266211798004 415.72577310339926Q869.759628804347 415.72577310339926 864.0637012216772 411.2643241222967Q858.3677736390075 406.8245326605199 856.4185968996909 398.72462043269303Q854.4694201603742 390.60305068554027 854.4694201603742 379.8609210999729L854.4694201603742 379.8609210999729L854.4694201603742 359.1130175859136Q854.4694201603742 347.7211624205741 856.5052269769939 339.7078802700501Q858.5193762742878 331.6729406002003 864.2153038569573 327.3847517737037Q869.9112314396272 323.09656294720713 880.8266211798004 323.09656294720713L880.8266211798004 323.09656294720713Q890.6374774343609 323.09656294720713 896.0301997464702 326.2802182880909Q901.4012645392539 329.4855311483005 903.4370713558735 335.8095267914168Q905.4512206531674 342.11186491520726 905.4512206531674 351.4679132639272L905.4512206531674 351.4679132639272L905.4512206531674 356.77400549873363L890.3342721638005 356.77400549873363L890.3342721638005 351.31631062864693Q890.3342721638005 345.3821503333941 889.5546014680739 341.9602622799271Q888.7749307723471 338.5383742264601 886.7391239557276 336.97903283500676Q884.7249746584338 335.4196914435534 880.9782238150806 335.4196914435534L880.9782238150806 335.4196914435534Q876.9282677011671 335.4196914435534 874.7408582492673 337.28223810556716Q872.5534487973677 339.1447847675808 871.8604081789439 343.60623374868334Q871.1457100411944 348.0460252104602 871.1457100411944 355.6911295324466L871.1457100411944 355.6911295324466L871.1457100411944 384.06247984916666Q871.1457100411944 395.6059376497863 873.3331194930942 399.50429112841965Q875.520528944994 403.4026446070529 881.1298264503608 403.4026446070529L881.1298264503608 403.4026446070529Q885.3530427188801 403.4026446070529 887.3022194581969 401.45346786773626Q889.2513961975134 399.50429112841965 889.792834180657 395.9091429203467Q890.3342721638005 392.33565223159957 890.3342721638005 387.80923069251975L890.3342721638005 387.80923069251975L890.3342721638005 380.4673316410937L905.4512206531674 380.4673316410937L905.4512206531674 386.7046972069069Q905.4512206531674 395.75754028506657 903.3504412785705 402.2981111214402Q901.2496619039738 408.8603394771396 895.8785971111901 412.2822275306066Q890.4858747990808 415.72577310339926 880.8266211798004 415.72577310339926ZM937.4177191779603 414.4696369825063L920.7414292971401 414.4696369825063L920.7414292971401 288.1629842747876L937.4177191779603 288.1629842747876L937.4177191779603 333.6870898974942Q941.9441407170401 329.33392851302034 947.553438222407 326.21524573011374Q953.1843932470995 323.09656294720713 960.0281693540335 323.09656294720713L960.0281693540335 323.09656294720713Q965.3342615888399 323.09656294720713 968.2147116591633 325.89038294022765Q971.1168192488126 328.70586045257386 972.2863252924026 332.9074192017676Q973.4558313359927 337.1306354702869 973.4558313359927 341.4837968547608L973.4558313359927 341.4837968547608L973.4558313359927 414.4696369825063L956.7578839358467 414.4696369825063L956.7578839358467 346.3350811837267Q956.7578839358467 341.4837968547608 955.3501451796735 338.8415794970204Q953.9640639428261 336.19936213928014 949.5892450390265 336.19936213928014L949.5892450390265 336.19936213928014Q946.6221648914001 336.19936213928014 943.4385095505162 337.91030616601364Q940.2331966903067 339.62125019274714 937.4177191779603 342.11186491520726L937.4177191779603 342.11186491520726L937.4177191779603 414.4696369825063ZM1014.6051180548997 415.72577310339926L1014.6051180548997 415.72577310339926Q1004.0145911046125 415.72577310339926 998.2320334446398 411.5891869121828Q992.4711333039928 407.45260072096636 990.2187512941158 399.4176610511167Q987.944711764913 391.3827213812669 987.944711764913 379.6876609453671L987.944711764913 379.6876609453671L987.944711764913 359.1130175859136Q987.944711764913 347.1147518794533 990.283723852093 339.1447847675808Q992.622735939273 331.196475175034 998.4702661572229 327.1465190611206Q1004.3177963751729 323.09656294720713 1014.6051180548997 323.09656294720713L1014.6051180548997 323.09656294720713Q1025.996973220239 323.09656294720713 1031.3680380130227 327.7745871215671Q1036.7607603251322 332.45261129592706 1038.4717043518658 341.26722166150336Q1040.182648378599 350.0601745077541 1040.182648378599 362.38330300410036L1040.182648378599 362.38330300410036L1040.182648378599 369.7252020555264L1004.642659165059 369.7252020555264L1004.642659165059 387.80923069251975Q1004.642659165059 393.26692556260633 1005.638905054043 396.68881361607333Q1006.6568084623528 400.13235918886613 1008.9308479915555 401.75667313829666Q1011.1832300014327 403.4026446070529 1014.7783782095055 403.4026446070529L1014.7783782095055 403.4026446070529Q1018.5034715335329 403.4026446070529 1020.4526482728495 401.6050705030164Q1022.4018250121661 399.80749639898005 1023.1165231499156 396.4505809034902Q1023.8095637683393 393.1153229273262 1023.8095637683393 388.58890138824637L1023.8095637683393 388.58890138824637L1023.8095637683393 383.1312065181598L1040.0310457433188 383.1312065181598L1040.0310457433188 386.5530945716268Q1040.0310457433188 400.13235918886613 1034.270145602672 407.9290661461327Q1028.487587942699 415.72577310339926 1014.6051180548997 415.72577310339926ZM1004.642659165059 355.84273216772675L1004.642659165059 360.67235897736686L1023.8095637683393 360.67235897736686L1023.8095637683393 352.5724467495399Q1023.8095637683393 346.94149172484737 1023.1814957078929 343.1297683235171Q1022.575085166772 339.31804492218674 1020.6259084274554 337.36886818287013Q1018.6767316881388 335.4196914435534 1014.4535154196193 335.4196914435534L1014.4535154196193 335.4196914435534Q1010.4035593057059 335.4196914435534 1008.3027799311091 337.28223810556716Q1006.2020005565122 339.1447847675808 1005.4223298607856 343.60623374868334Q1004.642659165059 348.0460252104602 1004.642659165059 355.84273216772675L1004.642659165059 355.84273216772675ZM1070.7414081472189 414.4696369825063L1055.321254387292 414.4696369825063L1055.321254387292 324.3310415487743L1070.7414081472189 324.3310415487743L1070.7414081472189 332.9074192017676Q1075.2678296862987 327.7745871215671 1080.7255245563852 325.28397239910686Q1086.183219426472 322.77170015732094 1091.9657770864446 322.77170015732094L1091.9657770864446 322.77170015732094Q1096.9470065313649 322.77170015732094 1100.931990087301 325.28397239910686Q1104.895316123912 327.7745871215671 1106.6062601506455 334.16355532266056L1106.6062601506455 334.16355532266056Q1111.457544479611 328.22939502740763 1117.131814542955 325.5005475923643Q1122.8277421256248 322.77170015732094 1129.0651076914382 322.77170015732094L1129.0651076914382 322.77170015732094Q1133.439926595238 322.77170015732094 1137.0134172839853 324.8941370512436Q1140.608565492058 326.99491642584036 1142.7959749439578 331.58631052289735Q1144.9833843958577 336.19936213928014 1144.9833843958577 343.6712063066606L1144.9833843958577 343.6712063066606L1144.9833843958577 414.4696369825063L1129.6931757518846 414.4696369825063L1129.6931757518846 344.7757397922733Q1129.6931757518846 338.2135114365739 1127.592396377288 335.9611294266969Q1125.4916170026909 333.6870898974942 1121.8964687946182 333.6870898974942L1121.8964687946182 333.6870898974942Q1118.474580741151 333.6870898974942 1114.727829897798 335.63626663681083Q1110.9810790544448 337.58544337612744 1107.8623962715383 341.02898894892024L1107.8623962715383 341.02898894892024Q1107.8623962715383 341.6570570093667 1107.8623962715383 342.2634675504874Q1107.8623962715383 342.8915356109339 1107.8623962715383 343.6712063066606L1107.8623962715383 343.6712063066606L1107.8623962715383 414.4696369825063L1092.5721876275657 414.4696369825063L1092.5721876275657 344.7757397922733Q1092.5721876275657 338.2135114365739 1090.4714082529686 335.9611294266969Q1088.370628878372 333.6870898974942 1084.7754806702987 333.6870898974942L1084.7754806702987 333.6870898974942Q1081.353592616832 333.6870898974942 1077.6934718507819 335.63626663681083Q1074.0333510847317 337.58544337612744 1070.7414081472189 341.02898894892024L1070.7414081472189 341.02898894892024L1070.7414081472189 414.4696369825063ZM1161.9628795472381 437.0800871585794L1159.9487302499442 437.0800871585794L1159.9487302499442 424.30215075639256Q1166.0344931804775 424.30215075639256 1169.6079838692244 423.73905525392325Q1173.2031320772976 423.19761727077974 1174.7624734687506 421.72490595662936Q1176.321814860204 420.2305371231533 1176.321814860204 417.5883197654129L1176.321814860204 417.5883197654129Q1176.321814860204 416.1805810092398 1175.2172813745915 411.3509541995997Q1174.1344054083042 406.5213273899596 1172.8782692874115 401.0636325198729L1172.8782692874115 401.0636325198729L1154.794240650418 324.3310415487743L1171.6437906858441 324.3310415487743L1183.7936590275845 391.7075841711531L1195.4887194634844 324.3310415487743L1212.3382694989104 324.3310415487743L1190.8106952891244 419.45086642742666Q1189.4246140522769 426.01309478312606 1185.677863208924 429.8248181844563Q1181.9311123655707 433.6581991051124 1176.0835821476207 435.3691431318459Q1170.2360519296708 437.0800871585794 1161.9628795472381 437.0800871585794L1161.9628795472381 437.0800871585794Z " fill="#fad744" transform="matrix(0.7217457507277663,0,0,0.721745750727766,0,38.67023678521629)"/></g></svg>