<?xml version="1.0" encoding="UTF-8" standalone="no" ?>
<!DOCTYPE svg PUBLIC "-//W3C//DTD SVG 1.1//EN" "http://www.w3.org/Graphics/SVG/1.1/DTD/svg11.dtd">
<svg xmlns="http://www.w3.org/2000/svg" xmlns:xlink="http://www.w3.org/1999/xlink" version="1.1" width="1280" height="1024" viewBox="0 0 1280 1024" xml:space="preserve">
<desc>Created with Fabric.js 5.3.0</desc>
<defs>
</defs>
<g transform="matrix(1 0 0 1 640 512)" id="background-logo"  >
<rect style="stroke: none; stroke-width: 0; stroke-dasharray: none; stroke-linecap: butt; stroke-dashoffset: 0; stroke-linejoin: miter; stroke-miterlimit: 4; fill: rgb(255,255,255); fill-rule: nonzero; opacity: 1;"  paint-order="stroke"  x="-640" y="-512" rx="0" ry="0" width="1280" height="1024" />
</g>
<g transform="matrix(1.4314357006909624 0 0 1.4314357006909626 640 403.69051275475783)" id="logo-logo"  >
<g style=""  paint-order="stroke"   >
		<g transform="matrix(1.0523608160521085 0 0 1.052360816052109 0 2.842171e-14)"  >
<g style=""  paint-order="stroke"   >
		<g transform="matrix(1 0 0 1 0 0)"  >
<linearGradient id="SVGID_399783_37358" gradientUnits="userSpaceOnUse" gradientTransform="matrix(1 0 0 1 -100 -95)"  x1="0" y1="0" x2="0" y2="191">
<stop offset="0%" style="stop-color:rgb(50,129,226);stop-opacity: 1"/>
<stop offset="100%" style="stop-color:rgb(85,151,231);stop-opacity: 1"/>
</linearGradient>
<polygon style="stroke: none; stroke-width: 1; stroke-dasharray: none; stroke-linecap: butt; stroke-dashoffset: 0; stroke-linejoin: miter; stroke-miterlimit: 4; fill: url(#SVGID_399783_37358); fill-rule: nonzero; opacity: 1;"  paint-order="stroke"  points="100,-22.430000000000007 30.900000000000006,-32.46 0,-95 -30.900000000000006,-32.46 -100,-22.430000000000007 -50,26.260000000000005 -61.8,95 0,62.55000000000001 61.80000000000001,95 50,26.260000000000005 100,-22.430000000000007 " />
</g>
</g>
</g>
		<g transform="matrix(0.8128692679880555 0 0 0.8128692679880555 0.019205416845579748 3.5995752522779583)"  >
<g style=""  paint-order="stroke"   >
		<g transform="matrix(1 0 0 1 0 0)"  >
<path style="stroke: none; stroke-width: 1; stroke-dasharray: none; stroke-linecap: butt; stroke-dashoffset: 0; stroke-linejoin: miter; stroke-miterlimit: 4; fill: rgb(255,255,255); fill-rule: nonzero; opacity: 1;"  paint-order="stroke"  transform=" translate(-100, -95)" d="M 200 72.6 L 130.9 62.599999999999994 L 100 0 L 69.1 62.5 L 0 72.6 L 50 121.3 L 38.2 190 L 100 157.5 L 161.8 190 L 150 121.3 L 200 72.6 z M 100 146.3 L 51.5 171.8 L 60.8 117.80000000000001 L 21.5 79.5 L 75.7 71.6 L 100 22.6 L 124.3 71.7 L 178.5 79.60000000000001 L 139.2 117.80000000000001 L 148.5 171.8 L 100 146.3 z" stroke-linecap="round" />
</g>
</g>
</g>
</g>
</g>
<g transform="matrix(1.9211538461538462 0 0 1.9211538461538462 643.1845526442305 645.3600217166377)" id="text-logo"  >
<g style=""  paint-order="stroke"   >
		<g transform="matrix(1 0 0 1 0 0)" id="text-logo-path-0"  >
<path style="stroke: none; stroke-width: 0.96875; stroke-dasharray: none; stroke-linecap: butt; stroke-dashoffset: 0; stroke-linejoin: miter; stroke-miterlimit: 4; fill: rgb(68,140,228); fill-rule: nonzero; opacity: 1;"  paint-order="stroke"  transform=" translate(-257.95, 20.77)" d="M 42.84 -9.11 L 33.98 -14.26 C 31.99 -11.28 28.64 -9.3 24.68 -9.3 C 18.35 -9.3 13.33 -14.38 13.33 -20.77 C 13.33 -27.16 18.41 -32.24 24.68 -32.24 C 28.64 -32.24 32.3 -30.13 34.35 -26.85 L 43.09 -31.93 C 39.18 -38.19 32.36 -42.22 24.68 -42.22 C 16.74 -42.22 9.73 -38.07 5.95 -31.5 C 4.03 -28.21 3.1 -24.61 3.1 -20.77 C 3.1 -13.08 7.19 -6.14 13.83 -2.23 C 17.11 -0.31 20.77 0.68 24.68 0.68 C 32.18 0.68 38.87 -3.16 42.84 -9.11 Z M 89.59 0 L 105.71 -41.54 L 94.8 -41.54 L 84.13 -14.07 L 73.47 -41.54 L 62.56 -41.54 L 78.68 0 Z M 129.89 0 L 132.99 -8.06 L 148.12 -8.06 L 151.22 0 L 162.13 0 L 146.01 -41.54 L 135.1 -41.54 L 118.98 0 Z M 136.4 -16.74 L 140.55 -27.47 L 144.71 -16.74 Z M 196.48 0 L 196.48 -41.54 L 186.56 -41.54 L 186.56 0 Z M 260.65 -9.11 L 251.78 -14.26 C 249.8 -11.28 246.45 -9.3 242.48 -9.3 C 236.16 -9.3 231.14 -14.38 231.14 -20.77 C 231.14 -27.16 236.22 -32.24 242.48 -32.24 C 246.45 -32.24 250.11 -30.13 252.15 -26.85 L 260.9 -31.93 C 256.99 -38.19 250.17 -42.22 242.48 -42.22 C 234.55 -42.22 227.54 -38.07 223.76 -31.5 C 221.84 -28.21 220.91 -24.61 220.91 -20.77 C 220.91 -13.08 225 -6.14 231.63 -2.23 C 234.92 -0.31 238.58 0.68 242.48 0.68 C 249.98 0.68 256.68 -3.16 260.65 -9.11 Z M 295.24 0 L 295.24 -16.43 L 312.6 -16.43 L 312.6 0 L 322.52 0 L 322.52 -41.54 L 312.6 -41.54 L 312.6 -25.11 L 295.24 -25.11 L 295.24 -41.54 L 285.32 -41.54 L 285.32 0 Z M 346.95 0 L 376.71 0 L 376.71 -8.68 L 356.87 -8.68 L 356.87 -16.43 L 372.99 -16.43 L 372.99 -25.11 L 356.87 -25.11 L 356.87 -32.86 L 376.71 -32.86 L 376.71 -41.54 L 346.95 -41.54 Z M 411.06 0 L 411.06 -19.72 L 419.18 0 L 430.03 0 L 438.22 -19.84 L 438.22 0 L 448.14 0 L 448.14 -41.54 L 436.36 -41.54 L 424.64 -13.02 L 412.86 -41.54 L 401.14 -41.54 L 401.14 0 Z M 472.56 -41.54 L 487.63 -16.31 L 487.63 0 L 497.55 0 L 497.55 -16 L 512.8 -41.54 L 502.57 -41.54 L 492.71 -24.92 L 482.79 -41.54 Z" stroke-linecap="round" />
</g>
</g>
</g>
<g transform="matrix(1.9211538461538462 0 0 1.9211538461538462 640.0266150053989 734.1525302452422)" id="tagline-8f92e816-e469-4d4a-b9ef-a3c105450c09-logo"  >
<g style=""  paint-order="stroke"   >
		<g transform="matrix(1 0 0 1 0 0)" id="tagline-8f92e816-e469-4d4a-b9ef-a3c105450c09-logo-path-0"  >
<path style="stroke: none; stroke-width: 0; stroke-dasharray: none; stroke-linecap: butt; stroke-dashoffset: 0; stroke-linejoin: miter; stroke-miterlimit: 4; fill: rgb(68,140,228); fill-rule: nonzero; opacity: 1;"  paint-order="stroke"  transform=" translate(-177.51500000000001, 8.71)" d="M 8.5 -17.68 C 4.47 -17.68 1.72 -15.57 1.72 -12.27 C 1.72 -9.65 3.25 -7.98 6.32 -7.31 L 9.91 -6.53 C 11.05 -6.29 11.62 -5.88 11.62 -5.28 C 11.62 -4.37 10.74 -3.9 8.97 -3.9 C 7.54 -3.9 6.08 -4.73 5.59 -6.06 L 1.3 -4.55 C 2.03 -1.43 4.99 0.26 8.74 0.26 C 11.15 0.26 13.44 -0.52 14.79 -2.21 C 15.47 -3.04 15.81 -4.08 15.81 -5.3 C 15.81 -7.93 14.25 -9.59 11.1 -10.3 L 7.54 -11.1 C 6.63 -11.31 6.01 -11.73 6.01 -12.27 C 6.01 -13.18 7.07 -13.52 8.45 -13.52 C 10.14 -13.52 11.23 -13.1 11.47 -11.67 L 15.47 -13.23 C 14.61 -16.15 11.93 -17.68 8.5 -17.68 Z M 30.21 0 L 30.21 -8.27 L 33.62 0 L 38.17 0 L 41.6 -8.32 L 41.6 0 L 45.76 0 L 45.76 -17.42 L 40.82 -17.42 L 35.91 -5.46 L 30.97 -17.42 L 26.05 -17.42 L 26.05 0 Z M 60.58 0 L 61.88 -3.38 L 68.22 -3.38 L 69.52 0 L 74.1 0 L 67.34 -17.42 L 62.76 -17.42 L 56 0 Z M 63.31 -7.02 L 65.05 -11.52 L 66.79 -7.02 Z M 98.88 0 L 94.95 -6.29 C 97.03 -7.15 98.49 -9.2 98.49 -11.65 C 98.49 -14.79 96.04 -17.29 92.92 -17.42 L 84.34 -17.42 L 84.34 0 L 88.5 0 L 88.5 -5.85 L 90.17 -5.85 L 93.83 0 Z M 92.2 -9.49 L 88.5 -9.49 L 88.5 -13.78 L 92.2 -13.78 C 93.47 -13.78 94.33 -12.9 94.33 -11.62 C 94.33 -10.35 93.47 -9.49 92.2 -9.49 Z M 117.96 0 L 117.96 -13.81 L 122.64 -13.81 L 122.64 -17.45 L 109.12 -17.45 L 109.12 -13.81 L 113.8 -13.81 L 113.8 0 Z M 152.93 -17.68 C 148.9 -17.68 146.15 -15.57 146.15 -12.27 C 146.15 -9.65 147.68 -7.98 150.75 -7.31 L 154.34 -6.53 C 155.48 -6.29 156.05 -5.88 156.05 -5.28 C 156.05 -4.37 155.17 -3.9 153.4 -3.9 C 151.97 -3.9 150.51 -4.73 150.02 -6.06 L 145.73 -4.55 C 146.46 -1.43 149.42 0.26 153.17 0.26 C 155.58 0.26 157.87 -0.52 159.22 -2.21 C 159.9 -3.04 160.24 -4.08 160.24 -5.3 C 160.24 -7.93 158.68 -9.59 155.53 -10.3 L 151.97 -11.1 C 151.06 -11.31 150.44 -11.73 150.44 -12.27 C 150.44 -13.18 151.5 -13.52 152.88 -13.52 C 154.57 -13.52 155.66 -13.1 155.9 -11.67 L 159.9 -13.23 C 159.04 -16.15 156.36 -17.68 152.93 -17.68 Z M 179.53 0.29 C 182.86 0.29 185.8 -1.48 187.38 -4.24 C 188.19 -5.62 188.58 -7.1 188.58 -8.71 C 188.58 -11.93 186.86 -14.85 184.08 -16.48 C 182.7 -17.29 181.17 -17.71 179.53 -17.71 C 176.2 -17.71 173.26 -15.96 171.68 -13.21 C 170.87 -11.83 170.48 -10.32 170.48 -8.71 C 170.48 -5.49 172.2 -2.57 174.98 -0.94 C 176.36 -0.13 177.89 0.29 179.53 0.29 Z M 174.77 -8.71 C 174.77 -11.39 176.9 -13.52 179.53 -13.52 C 182.18 -13.52 184.29 -11.39 184.29 -8.71 C 184.29 -6.03 182.16 -3.9 179.53 -3.9 C 176.88 -3.9 174.77 -6.03 174.77 -8.71 Z M 198.82 0 L 210.78 0 L 210.78 -3.64 L 202.98 -3.64 L 202.98 -17.42 L 198.82 -17.42 Z M 225.19 -7.59 L 225.19 -17.42 L 221.03 -17.42 L 221.03 -7.59 C 221.03 -4.71 222.53 -2.21 224.93 -0.81 C 226.12 -0.1 227.42 0.26 228.85 0.26 C 231.66 0.26 234.18 -1.25 235.59 -3.67 C 236.29 -4.86 236.63 -6.16 236.63 -7.59 L 236.63 -17.42 L 232.47 -17.42 L 232.47 -7.59 C 232.47 -5.43 230.93 -3.8 228.85 -3.8 C 226.75 -3.8 225.19 -5.43 225.19 -7.59 Z M 255.71 0 L 255.71 -13.81 L 260.39 -13.81 L 260.39 -17.45 L 246.87 -17.45 L 246.87 -13.81 L 251.55 -13.81 L 251.55 0 Z M 274.79 0 L 274.79 -17.42 L 270.63 -17.42 L 270.63 0 Z M 294.09 0.29 C 297.41 0.29 300.35 -1.48 301.94 -4.24 C 302.74 -5.62 303.13 -7.1 303.13 -8.71 C 303.13 -11.93 301.42 -14.85 298.64 -16.48 C 297.26 -17.29 295.72 -17.71 294.09 -17.71 C 290.76 -17.71 287.82 -15.96 286.23 -13.21 C 285.43 -11.83 285.04 -10.32 285.04 -8.71 C 285.04 -5.49 286.75 -2.57 289.54 -0.94 C 290.91 -0.13 292.45 0.29 294.09 0.29 Z M 289.33 -8.71 C 289.33 -11.39 291.46 -13.52 294.09 -13.52 C 296.74 -13.52 298.84 -11.39 298.84 -8.71 C 298.84 -6.03 296.71 -3.9 294.09 -3.9 C 291.43 -3.9 289.33 -6.03 289.33 -8.71 Z M 317.54 0 L 317.54 -10.76 L 323.88 0 L 328.98 0 L 328.98 -17.42 L 324.82 -17.42 L 324.82 -6.6 L 318.45 -17.42 L 313.38 -17.42 L 313.38 0 Z M 346.42 -17.68 C 342.39 -17.68 339.64 -15.57 339.64 -12.27 C 339.64 -9.65 341.17 -7.98 344.24 -7.31 L 347.83 -6.53 C 348.97 -6.29 349.54 -5.88 349.54 -5.28 C 349.54 -4.37 348.66 -3.9 346.89 -3.9 C 345.46 -3.9 344.01 -4.73 343.51 -6.06 L 339.22 -4.55 C 339.95 -1.43 342.91 0.26 346.66 0.26 C 349.08 0.26 351.36 -0.52 352.72 -2.21 C 353.39 -3.04 353.73 -4.08 353.73 -5.3 C 353.73 -7.93 352.17 -9.59 349.02 -10.3 L 345.46 -11.1 C 344.55 -11.31 343.93 -11.73 343.93 -12.27 C 343.93 -13.18 344.99 -13.52 346.37 -13.52 C 348.06 -13.52 349.15 -13.1 349.39 -11.67 L 353.39 -13.23 C 352.53 -16.15 349.86 -17.68 346.42 -17.68 Z" stroke-linecap="round" />
</g>
</g>
</g>
<g transform="matrix(1.9211538461538462 0 0 1.9211538461538462 640.1821870407538 424.4160020744574)" id="tagline-7e8fdea8-0e1f-4921-8ed7-676e3d744b51-logo"  >
<g style=""  paint-order="stroke"   >
		<g transform="matrix(1 0 0 1 0 0)" id="tagline-7e8fdea8-0e1f-4921-8ed7-676e3d744b51-logo-path-0"  >
<path style="stroke: none; stroke-width: 0; stroke-dasharray: none; stroke-linecap: butt; stroke-dashoffset: 0; stroke-linejoin: miter; stroke-miterlimit: 4; fill: rgb(255,255,255); fill-rule: nonzero; opacity: 1;"  paint-order="stroke"  transform=" translate(-13.78, 12.395)" d="M 25.57 -5.44 L 20.28 -8.51 C 19.09 -6.73 17.09 -5.55 14.73 -5.55 C 10.95 -5.55 7.95 -8.58 7.95 -12.39 C 7.95 -16.21 10.99 -19.24 14.73 -19.24 C 17.09 -19.24 19.28 -17.98 20.5 -16.02 L 25.71 -19.05 C 23.38 -22.79 19.31 -25.2 14.73 -25.2 C 9.99 -25.2 5.81 -22.72 3.55 -18.8 C 2.4 -16.84 1.85 -14.69 1.85 -12.39 C 1.85 -7.81 4.29 -3.66 8.25 -1.33 C 10.21 -0.18 12.39 0.41 14.73 0.41 C 19.2 0.41 23.2 -1.89 25.57 -5.44 Z" stroke-linecap="round" />
</g>
</g>
</g>
</svg>